REM DIRINDEX 1\2,1\3
REM DIRNAME folder01,folder02,folder03
TITLE ""
FILE "CD1Track37.mp3" MP3
  TRACK 01 AUDIO
    TITLE "0:"
    INDEX 01 00:00:00
  TRACK 02 AUDIO
    TITLE "2:cjc102_1767"
    INDEX 01 00:00:25
  TRACK 03 AUDIO
    TITLE "0:"
    INDEX 01 00:01:17
  TRACK 04 AUDIO
    TITLE "3:cjc102_1768"
    INDEX 01 00:01:24
  TRACK 05 AUDIO
    TITLE "0:"
    INDEX 01 00:02:55
  TRACK 06 AUDIO
    TITLE "3:cjc102_1769"
    INDEX 01 00:03:14
  TRACK 07 AUDIO
    TITLE "0:"
    INDEX 01 00:07:09
  TRACK 08 AUDIO
    TITLE "2:cjc102_1770"
    INDEX 01 00:07:13
  TRACK 09 AUDIO
    TITLE "0:"
    INDEX 01 00:08:17
  TRACK 10 AUDIO
    TITLE "3:cjc102_1771"
    INDEX 01 00:08:40
  TRACK 11 AUDIO
    TITLE "0:"
    INDEX 01 00:09:36
  TRACK 12 AUDIO
    TITLE "2:cjc102_1772"
    INDEX 01 00:09:49
  TRACK 13 AUDIO
    TITLE "0:"
    INDEX 01 00:11:09
  TRACK 14 AUDIO
    TITLE "3:cjc102_1773"
    INDEX 01 00:11:46
  TRACK 15 AUDIO
    TITLE "0:"
    INDEX 01 00:12:30
  TRACK 16 AUDIO
    TITLE "2:cjc102_1774"
    INDEX 01 00:12:56
  TRACK 17 AUDIO
    TITLE "0:"
    INDEX 01 00:13:69
  TRACK 18 AUDIO
    TITLE "3:cjc102_1775"
    INDEX 01 00:14:54
  TRACK 19 AUDIO
    TITLE "0:"
    INDEX 01 00:15:54
  TRACK 20 AUDIO
    TITLE "2:cjc102_1776"
    INDEX 01 00:15:66
  TRACK 21 AUDIO
    TITLE "0:"
    INDEX 01 00:17:00
  TRACK 22 AUDIO
    TITLE "3:cjc102_1777"
    INDEX 01 00:17:55
  TRACK 23 AUDIO
    TITLE "0:"
    INDEX 01 00:18:44
  TRACK 24 AUDIO
    TITLE "2:cjc102_1778"
    INDEX 01 00:18:46
  TRACK 25 AUDIO
    TITLE "0:"
    INDEX 01 00:19:73
  TRACK 26 AUDIO
    TITLE "3:cjc102_1779"
    INDEX 01 00:20:71
  TRACK 27 AUDIO
    TITLE "0:"
    INDEX 01 00:21:51
  TRACK 28 AUDIO
    TITLE "2:cjc102_1780"
    INDEX 01 00:21:62
  TRACK 29 AUDIO
    TITLE "0:"
    INDEX 01 00:23:03
  TRACK 30 AUDIO
    TITLE "3:cjc102_1781"
    INDEX 01 00:24:12
  TRACK 31 AUDIO
    TITLE "0:"
    INDEX 01 00:25:09
  TRACK 32 AUDIO
    TITLE "2:cjc102_1782"
    INDEX 01 00:25:29
  TRACK 33 AUDIO
    TITLE "0:"
    INDEX 01 00:26:50
  TRACK 34 AUDIO
    TITLE "3:cjc102_1783"
    INDEX 01 00:27:47
  TRACK 35 AUDIO
    TITLE "0:"
    INDEX 01 00:28:41
  TRACK 36 AUDIO
    TITLE "2:cjc102_1784"
    INDEX 01 00:28:43
  TRACK 37 AUDIO
    TITLE "0:"
    INDEX 01 00:29:54
  TRACK 38 AUDIO
    TITLE "3:cjc102_1785"
    INDEX 01 00:30:54
  TRACK 39 AUDIO
    TITLE "0:"
    INDEX 01 00:31:51
  TRACK 40 AUDIO
    TITLE "2:cjc102_1786"
    INDEX 01 00:31:69
  TRACK 41 AUDIO
    TITLE "0:"
    INDEX 01 00:33:05
  TRACK 42 AUDIO
    TITLE "3:cjc102_1787"
    INDEX 01 00:34:30
  TRACK 43 AUDIO
    TITLE "0:"
    INDEX 01 00:35:23
  TRACK 44 AUDIO
    TITLE "2:cjc102_1788"
    INDEX 01 00:35:41
  TRACK 45 AUDIO
    TITLE "0:"
    INDEX 01 00:36:54
  TRACK 46 AUDIO
    TITLE "3:cjc102_1789"
    INDEX 01 00:37:16
  TRACK 47 AUDIO
    TITLE "0:"
    INDEX 01 00:38:12
  TRACK 48 AUDIO
    TITLE "2:cjc102_1790"
    INDEX 01 00:39:05
  TRACK 49 AUDIO
    TITLE "0:"
    INDEX 01 00:40:11
  TRACK 50 AUDIO
    TITLE "3:cjc102_1791"
    INDEX 01 00:42:45
  TRACK 51 AUDIO
    TITLE "0:"
    INDEX 01 00:43:62
  TRACK 52 AUDIO
    TITLE "2:cjc102_1792"
    INDEX 01 00:43:72
  TRACK 53 AUDIO
    TITLE "0:"
    INDEX 01 00:44:67
  TRACK 54 AUDIO
    TITLE "2:cjc102_1793"
    INDEX 01 00:45:24
  TRACK 55 AUDIO
    TITLE "0:"
    INDEX 01 00:46:29
  TRACK 56 AUDIO
    TITLE "3:cjc102_1794"
    INDEX 01 00:47:01
  TRACK 57 AUDIO
    TITLE "0:"
    INDEX 01 00:48:12
  TRACK 58 AUDIO
    TITLE "2:cjc102_1795"
    INDEX 01 00:48:48
  TRACK 59 AUDIO
    TITLE "0:"
    INDEX 01 00:49:51
  TRACK 60 AUDIO
    TITLE "2:cjc102_1796"
    INDEX 01 00:50:19
  TRACK 61 AUDIO
    TITLE "0:"
    INDEX 01 00:51:26
  TRACK 62 AUDIO
    TITLE "3:cjc102_1797"
    INDEX 01 00:52:04
  TRACK 63 AUDIO
    TITLE "0:"
    INDEX 01 00:53:23
  TRACK 64 AUDIO
    TITLE "2:cjc102_1798"
    INDEX 01 00:53:55
  TRACK 65 AUDIO
    TITLE "0:"
    INDEX 01 00:54:62
  TRACK 66 AUDIO
    TITLE "2:cjc102_1799"
    INDEX 01 00:55:22
  TRACK 67 AUDIO
    TITLE "0:"
    INDEX 01 00:56:41
  TRACK 68 AUDIO
    TITLE "3:cjc102_1800"
    INDEX 01 00:57:09
  TRACK 69 AUDIO
    TITLE "0:"
    INDEX 01 00:58:28
  TRACK 70 AUDIO
    TITLE "2:cjc102_1801"
    INDEX 01 00:59:24
  TRACK 71 AUDIO
    TITLE "0:"
    INDEX 01 01:01:48
  TRACK 72 AUDIO
    TITLE "3:cjc102_1802"
    INDEX 01 01:02:30
  TRACK 73 AUDIO
    TITLE "0:"
    INDEX 01 01:03:37
  TRACK 74 AUDIO
    TITLE "2:cjc102_1803"
    INDEX 01 01:04:09
  TRACK 75 AUDIO
    TITLE "0:"
    INDEX 01 01:07:51
  TRACK 76 AUDIO
    TITLE "3:cjc102_1804"
    INDEX 01 01:08:31
  TRACK 77 AUDIO
    TITLE "0:"
    INDEX 01 01:09:42
  TRACK 78 AUDIO
    TITLE "2:cjc102_1805"
    INDEX 01 01:09:69
  TRACK 79 AUDIO
    TITLE "0:"
    INDEX 01 01:14:39
